<?xml version="1.0" standalone="no"?>
<!DOCTYPE svg PUBLIC "-//W3C//DTD SVG 20010904//EN"
 "http://www.w3.org/TR/2001/REC-SVG-20010904/DTD/svg10.dtd">
<svg version="1.0" xmlns="http://www.w3.org/2000/svg"
 width="960.000000pt" height="960.000000pt" viewBox="0 0 960.000000 960.000000"
 preserveAspectRatio="xMidYMid meet">
<metadata>
Created by potrace 1.14, written by Peter Selinger 2001-2017
</metadata>
<g transform="translate(0.000000,960.000000) scale(0.100000,-0.100000)"
fill="#000000" stroke="none">
<path d="M2051 9553 c3 -44 1 -49 -24 -57 -18 -7 -27 -17 -27 -32 0 -12 -8
-24 -17 -26 -10 -3 -29 -27 -43 -54 -14 -27 -33 -57 -43 -68 -10 -11 -15 -25
-13 -32 2 -6 -4 -26 -15 -43 -23 -38 -23 -41 -3 -41 8 0 12 -5 9 -10 -5 -8
-11 -7 -21 1 -12 10 -14 4 -14 -36 0 -46 -1 -47 -27 -41 -16 3 -22 3 -15 0 17
-8 15 -29 -4 -45 -13 -10 -17 -10 -25 2 -7 11 -9 8 -10 -11 -1 -28 -48 -111
-67 -118 -7 -2 -12 5 -12 19 0 22 -14 19 -16 -4 0 -7 -2 -20 -2 -31 -2 -14 -5
-16 -15 -7 -15 12 -37 -3 -37 -26 0 -7 -13 -27 -30 -46 -16 -19 -34 -46 -39
-60 -6 -15 -17 -27 -24 -27 -25 0 -57 -48 -57 -85 0 -24 -5 -35 -15 -35 -8 0
-15 -6 -15 -14 0 -21 -19 -30 -34 -17 -10 9 -16 5 -26 -19 -7 -16 -17 -30 -23
-30 -7 0 -7 -4 1 -12 19 -19 14 -27 -28 -39 -41 -12 -50 -23 -27 -32 9 -4 9
-6 -2 -6 -7 -1 -27 -12 -43 -26 -16 -14 -33 -23 -38 -20 -4 3 -13 -2 -20 -10
-7 -8 -18 -15 -25 -15 -7 0 -20 -11 -29 -25 -9 -14 -23 -25 -31 -25 -8 0 -15
-3 -15 -7 0 -13 -54 -69 -72 -76 -10 -3 -18 -11 -18 -17 0 -5 -7 -10 -15 -10
-8 0 -30 -16 -50 -37 -19 -20 -43 -41 -53 -47 -67 -41 -82 -53 -82 -66 0 -12
-9 -15 -40 -12 -25 3 -40 0 -40 -7 0 -6 5 -11 10 -11 6 0 10 -7 10 -15 0 -8
-9 -15 -19 -15 -11 0 -29 -13 -41 -30 -12 -16 -30 -30 -40 -30 -10 0 -31 -10
-47 -23 -33 -28 -113 -67 -136 -67 -9 0 -22 -9 -30 -20 -11 -15 -28 -21 -68
-24 -34 -2 -79 -15 -121 -34 -37 -18 -75 -29 -83 -26 -10 4 -27 -3 -42 -17
-18 -17 -27 -20 -30 -11 -7 18 -18 15 -52 -17 l-31 -29 0 -3851 0 -3851 4800
0 4800 0 0 4800 0 4800 -3776 0 -3776 0 3 -47z m3154 -459 c110 -3 226 -11
275 -21 47 -9 121 -20 165 -24 105 -11 130 -16 255 -50 111 -31 118 -34 385
-164 94 -46 204 -98 245 -116 41 -18 82 -38 90 -45 25 -20 389 -194 405 -194
9 0 44 -21 78 -46 59 -43 97 -68 227 -145 30 -18 63 -43 72 -55 9 -11 54 -46
100 -77 135 -92 301 -262 347 -355 15 -32 52 -91 81 -132 73 -100 108 -174 90
-185 -14 -9 -12 -36 5 -69 21 -40 19 -72 -7 -91 -22 -15 -23 -14 -32 14 -5 17
-17 33 -27 36 -23 8 -69 -22 -69 -45 0 -10 -6 -23 -13 -29 -16 -13 -43 11 -49
44 -2 13 -14 22 -36 26 -19 4 -42 16 -53 28 -29 30 -50 25 -63 -16 -9 -29 -36
-30 -36 -3 0 11 -7 23 -15 26 -8 3 -17 14 -20 25 -4 11 -10 17 -15 14 -5 -3
-19 0 -31 7 -17 10 -23 10 -26 0 -3 -6 -9 -10 -14 -6 -5 3 -9 0 -9 -5 0 -6 7
-11 15 -11 8 0 15 -9 15 -20 0 -21 15 -27 25 -10 5 8 11 7 21 -1 20 -17 17
-33 -8 -44 -34 -15 -35 -90 -1 -126 13 -14 25 -39 26 -55 2 -25 -2 -29 -25
-32 -16 -2 -28 1 -28 7 0 6 -10 19 -22 31 -12 11 -16 20 -10 20 7 0 12 8 12
18 0 13 -2 14 -9 3 -5 -7 -14 -10 -20 -7 -15 10 -14 26 3 26 23 0 26 40 5 78
-10 20 -16 44 -14 53 8 23 -46 74 -57 56 -7 -11 -12 -2 -9 16 1 4 -8 3 -19 -3
-17 -9 -20 -18 -16 -52 6 -53 -1 -70 -26 -62 -17 5 -19 3 -13 -18 10 -32 13
-34 35 -21 24 15 39 -1 47 -51 3 -20 12 -41 19 -47 8 -6 14 -17 14 -25 0 -7 9
-18 20 -24 34 -18 69 -130 40 -130 -13 0 31 -68 48 -75 8 -3 18 -3 23 1 15 9
10 24 -9 24 -20 0 -46 36 -32 45 12 7 40 -7 64 -34 16 -18 17 -24 6 -51 -7
-16 -18 -30 -24 -30 -6 0 -22 -3 -35 -7 -22 -6 -23 -4 -17 21 6 24 5 26 -13
17 -33 -18 -29 -35 16 -70 49 -38 52 -48 21 -60 -25 -9 -55 -4 -65 12 -8 14
-16 103 -16 185 -1 61 -1 62 -29 62 -15 0 -28 -4 -28 -10 0 -5 4 -10 9 -10 17
0 22 -34 7 -49 -23 -22 -69 4 -63 36 3 17 0 23 -12 23 -22 0 -41 19 -41 41 0
10 -13 27 -30 39 -30 21 -30 21 -30 1 0 -11 -4 -22 -10 -26 -6 -4 -6 -15 0
-31 8 -19 6 -29 -5 -40 -17 -17 -17 -20 -9 -51 4 -13 11 -23 16 -23 6 0 8 6 5
14 -6 16 26 50 36 39 4 -3 24 -9 44 -12 32 -5 39 -11 41 -33 3 -23 -2 -30 -32
-42 -20 -8 -36 -20 -36 -27 0 -7 -3 -9 -7 -6 -3 4 1 15 10 25 10 11 13 22 7
31 -7 12 -13 12 -42 1 -18 -7 -40 -20 -50 -27 -14 -13 -20 -12 -46 1 -34 18
-82 71 -82 92 0 19 -10 18 -25 -3 -12 -17 -14 -17 -32 -1 -10 10 -36 24 -56
33 -32 13 -36 18 -27 35 16 29 12 40 -14 40 -14 0 -28 5 -31 10 -4 6 -15 8
-25 5 -11 -3 -35 6 -62 24 -36 24 -57 31 -102 32 -31 1 -59 6 -62 10 -2 5 -15
4 -28 -1 -17 -6 -30 -4 -45 6 -11 8 -26 14 -33 13 -20 -4 -77 11 -84 22 -3 5
5 13 18 18 22 9 21 10 -7 10 -17 1 -36 6 -43 13 -9 9 -15 8 -25 -6 -10 -14
-21 -17 -45 -12 -39 9 -52 25 -49 61 3 26 7 30 30 28 27 -2 27 -1 12 28 -17
33 -40 40 -30 9 5 -15 2 -20 -13 -20 -24 0 -35 -23 -19 -39 8 -8 4 -11 -14
-11 -14 0 -30 5 -36 11 -8 8 -17 4 -32 -12 -19 -21 -23 -21 -48 -8 -16 8 -34
20 -41 27 -21 19 -52 33 -61 28 -5 -3 -16 3 -26 14 -10 11 -24 20 -32 20 -7 0
-19 11 -25 25 -7 16 -19 25 -34 25 -31 0 -40 17 -20 39 19 21 23 52 4 33 -15
-15 -43 -15 -68 0 -15 10 -22 9 -38 -5 -10 -9 -35 -17 -54 -17 -68 0 -86 20
-48 53 23 19 18 40 -6 30 -9 -3 -29 4 -45 16 -16 12 -34 19 -39 16 -5 -3 -17
-2 -26 3 -11 6 -13 11 -5 16 6 4 11 11 11 16 0 14 -68 32 -99 25 -23 -5 -32
-2 -45 16 -13 20 -14 26 -2 44 11 16 22 19 60 17 29 -3 46 0 46 7 0 6 -10 11
-22 11 -13 0 -32 7 -42 15 -18 13 -18 16 -2 40 14 22 15 25 1 25 -19 0 -57 21
-68 38 -4 6 -14 12 -21 12 -8 0 -19 7 -26 15 -12 14 -15 14 -32 -2 -29 -26
-43 -4 -24 41 8 19 14 58 14 86 -1 40 -5 50 -19 50 -18 0 -33 -26 -24 -40 3
-5 1 -11 -5 -15 -5 -3 -10 0 -10 8 0 17 -73 32 -78 17 -10 -30 -72 14 -72 50
0 24 -18 26 -35 3 -14 -19 -35 -10 -35 17 0 19 -23 20 -97 4 -22 -4 -33 -3
-33 5 0 6 -12 16 -27 22 -21 8 -30 7 -38 -4 -5 -8 -24 -21 -41 -30 -45 -23
-58 -41 -39 -57 12 -10 15 -10 15 1 1 37 100 71 100 35 0 -8 -6 -16 -12 -19
-7 -2 5 -8 26 -12 34 -7 42 -5 57 14 13 16 27 21 46 19 36 -4 37 -32 2 -36
-15 -2 -35 -12 -45 -23 -16 -18 -16 -19 4 -19 34 0 72 18 72 35 0 13 9 15 38
13 29 -2 36 -7 34 -20 -2 -12 4 -18 15 -18 10 0 25 -4 33 -10 12 -8 12 -10 -3
-16 -9 -3 -31 -19 -48 -35 -17 -16 -39 -29 -49 -29 -11 0 -22 -4 -25 -10 -3
-5 -20 -10 -37 -10 -27 0 -30 3 -26 25 4 20 1 26 -19 31 -13 4 -27 4 -30 1 -3
-4 -21 5 -39 20 -25 19 -37 23 -47 15 -17 -14 -57 -4 -57 14 0 8 -9 14 -20 14
-11 0 -24 8 -27 18 -8 22 -35 42 -46 35 -5 -3 -3 -9 3 -13 16 -10 6 -40 -13
-40 -8 0 -27 12 -42 28 -23 23 -27 24 -22 7 3 -11 8 -33 12 -49 4 -22 10 -27
25 -23 11 3 23 1 26 -5 3 -5 16 -7 29 -4 31 8 38 -23 14 -53 -26 -32 -24 -41
12 -41 26 0 30 -3 27 -22 -2 -18 -9 -22 -28 -20 -14 1 -31 10 -38 20 -12 16
-14 16 -28 -2 -8 -11 -14 -26 -14 -33 0 -21 -21 -15 -27 7 -6 24 -16 25 -33 5
-9 -10 -9 -15 -1 -15 6 0 11 -9 11 -20 0 -24 -65 -60 -109 -60 -16 0 -33 -4
-36 -10 -8 -14 -42 -13 -51 2 -4 6 1 17 11 24 15 11 13 12 -19 7 -20 -3 -36
-4 -36 -1 0 2 9 21 20 43 11 22 20 45 20 52 0 21 -28 15 -35 -7 -8 -26 -44
-64 -69 -73 -14 -6 -16 -10 -7 -21 19 -22 -7 -31 -29 -11 -18 16 -20 16 -43
-9 -13 -14 -29 -26 -35 -26 -5 0 -13 -7 -16 -16 -6 -14 -9 -15 -28 -2 -20 13
-27 13 -65 -6 -24 -12 -43 -28 -43 -37 0 -9 -11 -38 -25 -64 -25 -46 -25 -48
-8 -67 9 -11 18 -29 18 -41 0 -24 53 -56 93 -57 12 0 22 -6 22 -14 0 -10 16
-17 47 -22 41 -6 44 -8 24 -16 -16 -5 -33 -4 -53 6 -20 10 -36 12 -51 6 -56
-22 -118 -37 -123 -29 -7 12 -95 11 -113 0 -16 -11 -51 7 -51 26 0 15 -58 7
-123 -18 -26 -11 -57 -19 -69 -19 -17 0 -18 -3 -8 -15 21 -26 2 -35 -66 -30
-55 3 -65 2 -60 -10 3 -8 1 -15 -5 -15 -6 0 -7 -5 -3 -12 5 -8 0 -9 -16 -5
-13 3 -36 -1 -51 -9 -15 -7 -51 -14 -79 -14 -57 0 -136 -21 -192 -50 -20 -11
-43 -20 -51 -20 -8 0 -20 -7 -27 -15 -7 -9 -21 -13 -31 -10 -10 3 -21 0 -26
-8 -10 -18 -107 -87 -122 -87 -6 0 -11 -4 -11 -9 0 -5 -15 -16 -33 -24 -18 -9
-43 -27 -56 -41 -29 -31 -38 -32 -43 -8 -4 17 -35 -41 -54 -103 -6 -18 -16
-30 -27 -30 -9 0 -26 -14 -36 -32 -26 -42 -38 -47 -65 -29 -27 17 -36 12 -36
-20 0 -29 -10 -54 -21 -54 -6 0 -5 9 1 21 12 22 7 49 -9 49 -20 0 -43 -51 -57
-122 -8 -39 -18 -76 -24 -82 -5 -5 -10 -19 -10 -29 0 -15 -21 -55 -47 -87 -6
-7 -22 22 -33 59 -7 25 -6 39 4 53 9 12 12 34 9 59 -3 23 -1 45 6 53 7 8 9 25
5 40 -3 15 1 44 11 70 24 63 0 90 -40 46 -12 -14 -22 -17 -29 -10 -6 6 -14 6
-22 -1 -20 -16 -34 -1 -34 36 0 43 9 65 26 65 8 0 14 6 14 14 0 8 5 16 11 18
16 5 1 48 -17 48 -8 0 -14 6 -14 14 0 13 -20 26 -40 26 -4 0 -6 -8 -3 -19 3
-10 -1 -22 -8 -26 -9 -6 -11 1 -6 28 4 27 2 37 -10 41 -21 9 -44 -24 -32 -46
16 -30 11 -50 -13 -46 -19 2 -22 8 -20 33 4 40 -13 13 -22 -36 -4 -23 -14 -40
-29 -47 l-22 -11 22 -7 c19 -5 21 -9 11 -28 -16 -31 -17 -31 -33 -10 -14 18
-14 17 -15 -14 0 -26 4 -32 18 -30 14 3 17 -4 14 -37 -4 -65 -4 -79 3 -107 6
-24 4 -28 -13 -28 -26 0 -43 -22 -32 -40 6 -8 10 -34 10 -57 0 -33 4 -43 16
-43 14 0 15 -12 10 -90 -6 -91 -1 -124 15 -114 5 3 8 -14 8 -38 -1 -24 -3 -35
-6 -25 -2 9 -9 17 -15 17 -6 0 -8 -9 -3 -22 4 -13 6 -35 6 -50 -1 -26 3 -46
35 -173 9 -33 15 -73 15 -90 -3 -81 -1 -100 9 -126 7 -15 13 -58 13 -96 2 -67
2 -68 -25 -71 -37 -4 -36 -28 2 -35 35 -8 40 -27 7 -27 -30 0 -61 -23 -55 -41
4 -13 -45 -59 -64 -59 -11 0 1 49 18 77 18 29 18 43 0 43 -8 0 -18 -9 -21 -21
-6 -18 -12 -20 -39 -15 -17 3 -38 15 -48 26 -9 11 -19 20 -22 20 -4 0 -22 16
-42 35 -23 24 -44 35 -63 35 -28 0 -29 2 -29 53 0 46 3 55 31 81 31 28 33 28
112 21 146 -14 139 -15 146 28 11 66 33 64 31 -4 -1 -24 2 -38 8 -34 11 7 13
43 4 98 -5 30 -9 35 -20 26 -32 -27 -62 29 -32 59 9 9 7 13 -5 18 -13 5 -17
19 -17 58 0 28 -7 85 -15 126 -27 129 -33 198 -29 293 4 86 25 180 45 201 16
17 11 76 -6 76 -25 0 -28 25 -11 100 9 40 14 86 10 104 -4 23 -1 38 10 48 8 8
14 28 14 44 -1 16 8 47 20 69 11 22 23 63 27 90 10 73 22 110 70 210 24 50 62
128 84 175 36 76 168 260 192 268 5 2 9 8 9 12 0 14 129 190 177 243 274 297
745 590 1213 756 47 16 122 44 168 60 46 17 115 35 155 41 40 5 97 17 127 26
30 9 88 23 129 30 41 8 90 18 110 24 20 5 72 10 116 11 44 1 109 5 145 9 36 4
94 6 130 4 36 -3 150 -7 255 -10z m129 -1105 c-6 -11 -24 -2 -24 11 0 5 7 7
15 4 8 -4 12 -10 9 -15z m-38 0 c8 -14 -14 -29 -43 -29 -25 0 -29 10 -11 28
15 15 45 16 54 1z m-431 -28 c3 -5 1 -12 -5 -16 -15 -10 0 -27 17 -20 19 7 83
-4 83 -15 0 -4 -11 -5 -25 -2 -20 3 -25 0 -25 -16 0 -26 -41 -38 -57 -16 -6 9
-9 22 -6 30 4 10 -3 14 -21 14 -30 0 -34 17 -8 36 20 16 39 18 47 5z m315 -52
c0 -6 -12 -24 -27 -39 -21 -22 -31 -27 -44 -19 -21 11 -15 39 7 39 8 0 17 7
20 15 7 17 44 21 44 4z m-120 -55 c0 -7 7 -14 15 -18 9 -3 12 -12 9 -21 -5
-12 -18 -15 -52 -13 -45 3 -74 28 -33 28 26 0 36 22 22 48 -6 11 -7 22 -4 26
8 8 42 -33 43 -50z m251 23 c-1 -12 -15 -9 -19 4 -3 6 1 10 8 8 6 -3 11 -8 11
-12z m-473 -39 c7 -7 12 -21 12 -31 0 -17 5 -18 35 -13 38 7 43 3 21 -20 -19
-18 -44 -18 -62 1 -23 23 -47 19 -41 -6 4 -16 3 -18 -8 -9 -10 8 -11 18 -5 33
4 12 11 30 14 40 6 20 17 22 34 5z m542 2 c0 -5 -4 -10 -10 -10 -5 0 -10 5
-10 10 0 6 5 10 10 10 6 0 10 -4 10 -10z m-220 -41 c0 -5 -4 -9 -10 -9 -5 0
-10 7 -10 16 0 8 5 12 10 9 6 -3 10 -10 10 -16z m-860 -68 c0 -12 -28 -22 -34
-12 -3 5 -3 11 1 15 9 9 33 7 33 -3z m1150 -1 c0 -5 -5 -10 -11 -10 -5 0 -7 5
-4 10 3 6 8 10 11 10 2 0 4 -4 4 -10z m-715 -10 c4 -6 -5 -10 -20 -10 -15 0
-24 4 -20 10 3 6 12 10 20 10 8 0 17 -4 20 -10z m265 0 c0 -5 -4 -10 -10 -10
-5 0 -10 5 -10 10 0 6 5 10 10 10 6 0 10 -4 10 -10z m-825 -40 c3 -5 -1 -10
-10 -10 -9 0 -13 5 -10 10 3 6 8 10 10 10 2 0 7 -4 10 -10z m1320 -20 c-3 -5
-13 -10 -21 -10 -8 0 -12 5 -9 10 3 6 13 10 21 10 8 0 12 -4 9 -10z m-496 -29
c13 -9 10 -13 -21 -24 -13 -5 -18 -1 -18 13 0 21 16 25 39 11z m601 -17 c0
-10 -7 -14 -22 -12 -32 5 -35 28 -4 28 17 0 26 -5 26 -16z m-450 -32 c0 -13
-3 -12 -15 4 -13 17 -14 17 -15 2 0 -26 -60 -53 -60 -28 0 15 60 49 76 43 8
-3 14 -12 14 -21z m-590 -13 c0 -11 -12 -11 -35 -3 -12 5 -14 9 -4 14 14 9 39
2 39 -11z m317 9 c15 -7 32 -18 36 -25 4 -7 19 -13 33 -13 24 0 96 -39 109
-60 9 -15 -27 -12 -48 4 -14 11 -27 12 -53 5 -37 -11 -54 -6 -54 15 0 8 -16
17 -37 21 -36 7 -62 28 -63 53 0 15 41 16 77 0z m807 3 c4 -7 -34 -31 -49 -31
-14 0 -2 29 13 33 28 8 31 7 36 -2z m-471 -8 c-7 -2 -19 -2 -25 0 -7 3 -2 5
12 5 14 0 19 -2 13 -5z m225 -8 c20 -9 47 -13 60 -10 13 3 31 0 39 -6 11 -10
19 -10 34 -1 16 10 23 10 34 -2 21 -20 19 -48 -2 -45 -10 2 -28 -1 -40 -5 -27
-9 -66 1 -58 15 4 5 -1 9 -9 9 -9 0 -16 -4 -16 -10 0 -12 -31 -1 -45 16 -5 7
-19 14 -30 16 -21 3 -35 38 -15 38 6 0 27 -7 48 -15z m292 -9 c0 -3 -4 -8 -10
-11 -5 -3 -10 -1 -10 4 0 6 5 11 10 11 6 0 10 -2 10 -4z m-42 -54 c2 -16 -4
-25 -22 -32 -14 -5 -26 -14 -26 -19 0 -6 -11 -21 -24 -35 -23 -26 -50 -34 -60
-17 -8 12 16 42 36 44 23 4 49 28 42 39 -8 12 26 50 40 45 6 -2 12 -13 14 -25z
m-861 2 c4 -10 -1 -22 -10 -29 -23 -16 -21 -24 3 -18 14 4 20 0 20 -11 0 -12
-9 -16 -35 -16 -19 0 -50 -7 -69 -16 -19 -9 -42 -14 -51 -11 -13 6 -9 13 20
39 20 18 47 43 58 55 26 27 55 30 64 7z m-267 2 c0 -2 -7 -7 -16 -10 -8 -3
-12 -2 -9 4 6 10 25 14 25 6z m451 -48 c25 -31 24 -48 -3 -48 -19 0 -23 6 -24
35 -1 41 2 42 27 13z m889 12 c0 -5 -7 -10 -15 -10 -8 0 -15 5 -15 10 0 6 7
10 15 10 8 0 15 -4 15 -10z m-1577 -43 c30 -26 34 -37 12 -37 -8 0 -15 5 -15
10 0 6 -6 10 -14 10 -7 0 -16 9 -19 20 -7 26 4 25 36 -3z m100 16 c-7 -2 -19
-2 -25 0 -7 3 -2 5 12 5 14 0 19 -2 13 -5z m1369 -15 l25 -12 -44 -24 c-24
-13 -50 -21 -56 -19 -7 2 -23 0 -36 -5 -14 -5 -30 -7 -38 -4 -21 9 6 56 36 62
14 3 31 7 36 9 22 7 52 4 77 -7z m1667 -47 c15 -10 8 -61 -9 -61 -12 0 -41 56
-33 64 9 8 25 7 42 -3z m-3643 -28 c-6 -6 -36 9 -36 18 0 5 9 4 20 -3 10 -7
18 -14 16 -15z m714 17 c0 -5 -7 -7 -15 -4 -8 4 -15 8 -15 10 0 2 7 4 15 4 8
0 15 -4 15 -10z m1370 1 c0 -5 -7 -11 -15 -15 -9 -3 -15 0 -15 9 0 8 7 15 15
15 8 0 15 -4 15 -9z m1825 -11 c-3 -5 5 -15 20 -22 29 -13 28 -33 -1 -33 -10
0 -24 11 -31 24 -12 26 -9 41 8 41 6 0 7 -4 4 -10z m-3968 -6 c-3 -3 -12 -4
-19 -1 -8 3 -5 6 6 6 11 1 17 -2 13 -5z m3735 -76 c-7 -7 -12 -8 -12 -2 0 14
12 26 19 19 2 -3 -1 -11 -7 -17z m396 -28 c0 -20 -4 -30 -14 -30 -16 0 -17 5
-8 38 9 32 21 27 22 -8z m-88 -14 c0 -3 -4 -8 -10 -11 -5 -3 -10 -1 -10 4 0 6
5 11 10 11 6 0 10 -2 10 -4z m-3627 -25 c16 -6 36 -7 50 -2 27 11 282 12 902
6 653 -7 759 -10 850 -29 44 -9 103 -16 130 -16 47 0 103 -14 133 -33 7 -5 36
-10 65 -13 54 -4 145 -30 161 -45 6 -5 24 -9 40 -9 37 0 193 -74 223 -107 13
-14 34 -23 51 -23 30 0 122 -53 122 -70 0 -6 8 -9 18 -6 25 8 95 -27 81 -41
-7 -7 -3 -12 16 -17 16 -4 25 -12 22 -20 -3 -7 -2 -17 1 -23 9 -13 62 -26 62
-14 0 5 10 9 23 8 12 0 29 3 38 7 11 5 28 -4 55 -29 44 -42 81 -45 76 -6 -1
13 -18 45 -36 72 -35 48 -36 59 -5 59 13 0 16 -5 12 -16 -4 -10 0 -20 10 -26
10 -5 17 -14 17 -20 0 -6 8 -16 17 -23 12 -9 18 -28 18 -56 1 -24 6 -53 12
-64 12 -24 7 -45 -13 -45 -8 0 -14 -9 -14 -20 0 -25 21 -70 32 -70 5 0 7 -9 3
-19 -3 -11 0 -23 7 -28 7 -4 19 -20 27 -35 12 -23 12 -31 -3 -61 -9 -19 -16
-37 -16 -40 0 -11 48 -57 59 -57 19 0 12 -58 -8 -77 -25 -24 -14 -42 27 -46
45 -5 54 -18 57 -74 1 -36 6 -49 18 -51 29 -6 19 -21 -19 -28 -28 -5 -35 -10
-32 -28 2 -17 10 -21 38 -21 38 0 40 -5 26 -78 -7 -36 -6 -37 18 -31 20 5 27
1 40 -25 21 -39 20 -41 -9 -41 -14 0 -25 -4 -25 -9 0 -17 29 -33 50 -26 15 5
20 2 20 -13 0 -11 -6 -22 -12 -25 -9 -3 -7 -12 8 -34 24 -32 42 -113 26 -113
-12 0 -22 24 -22 55 0 27 -10 36 -54 44 -25 6 -32 12 -34 36 -2 17 -8 35 -14
42 -5 7 -7 16 -4 22 7 11 -17 21 -50 21 -31 0 -33 35 -3 43 20 5 20 7 4 31
-10 14 -26 26 -37 26 -14 0 -18 5 -14 15 3 8 -6 31 -19 51 -14 20 -26 51 -27
68 -3 53 -4 60 -20 96 -8 19 -42 58 -74 85 -75 64 -184 176 -184 190 0 16
-160 199 -182 208 -11 4 -33 17 -50 28 -16 12 -38 19 -49 16 -10 -3 -17 -2
-15 2 3 4 -26 15 -62 25 -37 11 -84 28 -105 38 -22 11 -45 17 -53 14 -8 -3
-14 -1 -14 4 0 5 -17 12 -37 15 -21 3 -60 12 -88 20 -27 7 -104 19 -170 25
-66 6 -151 16 -190 21 -137 20 -456 0 -500 -32 -5 -4 -32 -10 -60 -13 -27 -4
-68 -9 -90 -12 -22 -3 -70 -5 -107 -5 -64 0 -68 -2 -74 -25 -3 -13 -12 -24
-20 -24 -7 0 -16 -10 -19 -22 -5 -18 -13 -23 -38 -22 -20 1 -33 7 -35 16 -2 9
-25 19 -62 26 -50 11 -61 17 -66 37 -3 13 -15 27 -25 30 -33 11 -21 27 19 23
21 -2 44 -11 53 -22 16 -20 39 -15 39 8 0 16 -66 38 -99 34 -29 -3 -61 -31
-61 -52 0 -23 -20 -30 -34 -11 -18 25 -62 16 -59 -13 3 -23 -6 -28 -22 -13
-28 27 -154 -3 -155 -36 0 -30 -80 -23 -194 16 -33 12 -67 21 -77 21 -9 0 -19
5 -21 11 -2 7 -52 12 -138 15 -74 2 -149 9 -166 14 -28 10 -77 12 -179 9 -16
-1 -57 -7 -90 -14 -33 -8 -80 -16 -105 -20 -121 -16 -180 -25 -235 -35 -33 -7
-80 -15 -105 -20 -111 -18 -246 -58 -261 -77 -6 -7 -19 -13 -29 -13 -33 0
-180 -93 -180 -114 0 -7 -11 -18 -24 -24 -26 -12 -126 -154 -126 -180 -1 -10
-12 -35 -25 -57 -46 -74 -87 -168 -92 -209 -3 -23 -11 -45 -17 -51 -13 -11
-66 -126 -66 -143 0 -6 -8 -30 -18 -54 -20 -46 -19 -68 4 -68 7 0 17 -12 20
-26 6 -22 0 -32 -31 -61 -30 -27 -36 -38 -31 -59 6 -23 4 -25 -15 -19 -19 6
-21 4 -16 -16 4 -13 7 -32 7 -41 0 -14 8 -18 35 -18 24 0 35 5 35 15 0 8 7 15
15 15 8 0 15 -7 15 -16 0 -8 4 -13 9 -9 5 3 13 1 16 -5 4 -6 15 -8 26 -5 14 5
19 2 19 -13 0 -32 21 -41 92 -36 50 3 70 0 82 -11 8 -8 19 -15 24 -15 5 0 15
-7 23 -16 7 -8 20 -13 30 -11 15 4 17 -1 12 -29 -4 -26 -2 -34 10 -34 8 0 25
-8 38 -19 21 -17 22 -21 9 -36 -12 -15 -12 -19 2 -29 9 -6 21 -29 27 -51 6
-21 23 -49 38 -62 24 -19 26 -24 13 -34 -13 -9 -12 -10 3 -5 11 3 31 9 45 12
15 4 32 10 37 14 6 4 25 7 43 5 21 -2 37 3 45 14 24 33 97 53 97 28 0 -8 9
-22 20 -32 30 -27 33 -50 10 -96 -11 -24 -20 -51 -20 -61 0 -10 -4 -18 -9 -18
-5 0 -11 -6 -14 -12 -3 -9 8 -14 33 -15 30 -2 39 2 43 17 3 11 10 20 16 20 6
0 8 -6 5 -14 -3 -7 2 -16 11 -20 12 -4 15 0 13 21 -2 19 2 28 15 31 11 2 17
-3 17 -16 0 -35 11 -31 66 24 35 35 54 63 54 79 0 19 6 24 39 30 22 4 45 13
52 21 6 8 17 14 24 14 7 0 30 7 51 17 22 9 48 17 60 19 22 2 80 38 129 78 74
61 197 153 237 178 23 15 57 36 74 47 27 18 33 19 43 7 9 -11 8 -17 -4 -30 -9
-9 -14 -20 -11 -25 4 -5 0 -12 -6 -14 -7 -3 12 -3 42 0 30 4 57 10 58 15 2 4
18 8 35 8 27 -1 30 -3 17 -13 -17 -14 -40 -52 -40 -67 0 -34 101 61 120 114
17 44 44 100 51 106 4 3 10 25 14 50 4 26 19 61 36 82 l29 37 -2 154 c-3 135
-1 155 15 171 9 10 17 22 17 27 0 6 5 7 10 4 6 -3 13 0 16 8 3 9 17 18 31 22
15 3 38 15 51 26 30 23 55 24 86 4 22 -15 25 -14 50 20 21 27 31 33 44 26 9
-4 46 -8 81 -8 62 0 80 -9 81 -40 0 -7 9 -17 20 -23 22 -12 28 -67 10 -100 -5
-10 -12 -36 -15 -57 -2 -21 -8 -60 -12 -88 -5 -27 -8 -70 -7 -95 1 -25 2 -65
2 -90 1 -25 0 -85 -2 -133 -5 -99 7 -157 31 -157 14 0 14 2 -1 19 -11 13 -15
27 -11 40 9 29 16 26 43 -14 12 -19 27 -35 32 -35 6 0 10 -6 10 -12 0 -21 49
-112 65 -121 8 -4 15 -14 15 -21 0 -13 20 -26 40 -26 13 0 -1 37 -21 56 -28
25 -23 34 16 34 33 0 48 -5 123 -37 19 -8 45 -12 61 -8 20 4 34 0 52 -17 16
-15 34 -22 52 -20 22 3 27 -1 27 -17 0 -22 34 -46 51 -35 6 4 15 1 19 -6 6 -9
13 -9 28 -1 37 20 108 9 132 -20 3 -3 22 -9 43 -13 20 -4 37 -11 37 -15 0 -8
56 -36 71 -36 3 0 13 -8 23 -17 21 -22 52 -23 60 -3 4 11 16 13 51 8 43 -5
105 6 147 28 10 5 28 9 41 9 13 0 34 10 46 21 13 12 44 33 70 46 25 14 49 30
52 35 4 6 25 18 48 29 40 18 41 18 41 -1 0 -11 -7 -20 -15 -20 -16 0 -20 -12
-8 -23 3 -4 16 5 29 18 28 31 59 34 51 6 -4 -17 0 -20 33 -19 36 0 39 3 38 28
-1 19 16 51 46 95 27 36 50 64 53 62 2 -3 27 18 54 45 37 37 47 53 39 62 -8
11 17 14 122 19 124 5 137 3 198 -20 36 -13 75 -22 87 -20 14 3 30 -4 44 -19
l22 -24 -27 0 c-19 0 -29 -6 -33 -20 -3 -11 -9 -20 -14 -20 -5 0 -9 -9 -9 -20
0 -19 10 -24 39 -20 10 1 12 -6 8 -29 -6 -26 -3 -31 13 -31 11 0 20 5 20 10 0
19 42 10 47 -10 6 -24 19 -26 31 -3 9 15 14 12 46 -22 20 -21 36 -42 36 -47 0
-6 6 -8 13 -5 7 3 23 -6 36 -19 19 -19 21 -29 15 -56 -4 -18 -7 -42 -6 -53 1
-14 -2 -11 -9 8 -7 16 -18 27 -30 27 -25 0 -24 -22 0 -40 11 -7 18 -18 15 -22
-3 -5 -1 -15 6 -23 6 -8 10 -26 8 -42 -2 -23 -7 -27 -26 -25 -21 3 -23 1 -17
-31 8 -42 -8 -77 -35 -77 -17 0 -20 7 -20 40 0 41 -17 90 -32 90 -4 0 -2 15 6
34 12 30 12 40 -1 78 -18 55 -38 77 -55 60 -19 -19 -41 -13 -67 20 -20 25 -22
34 -13 49 18 28 15 46 -8 52 -14 3 -20 14 -20 31 0 31 -25 44 -51 28 -10 -7
-25 -12 -34 -12 -22 0 -49 -58 -35 -75 7 -8 9 -23 4 -37 -9 -28 -5 -110 5
-121 11 -11 1 -54 -15 -68 -8 -6 -14 -20 -14 -31 0 -27 -27 -76 -48 -87 -17
-9 -40 -72 -57 -155 -4 -16 -15 -41 -26 -54 -10 -14 -19 -31 -19 -40 0 -8 -12
-26 -27 -39 -16 -14 -49 -45 -74 -69 -26 -24 -52 -44 -58 -44 -6 0 -19 -4 -29
-9 -83 -45 -130 -49 -149 -11 -11 22 -13 23 -13 5 -1 -19 -1 -19 -15 -1 -16
21 -53 17 -79 -9 -20 -20 -92 -10 -99 14 -2 9 -28 24 -60 35 -32 11 -57 23
-57 28 0 4 -11 8 -24 8 -14 0 -28 5 -31 10 -8 13 -84 50 -102 50 -15 0 -18
-27 -4 -32 5 -1 3 -12 -6 -23 -13 -16 -15 -17 -10 -2 4 11 1 17 -9 17 -22 0
-43 -23 -41 -46 1 -11 -4 -19 -13 -19 -8 0 -20 -11 -26 -24 l-11 -23 -36 33
c-21 20 -37 43 -37 56 0 14 -14 33 -37 50 -62 48 -91 83 -85 105 6 24 -12 38
-53 38 -48 0 -105 20 -105 35 0 8 -5 15 -11 15 -6 0 -28 15 -49 34 -21 19 -53
36 -75 40 -41 8 -46 12 -88 69 -28 36 -70 62 -86 53 -4 -3 -4 -35 1 -71 9 -66
-1 -103 -23 -89 -13 8 -11 -30 2 -43 7 -7 9 -19 6 -28 -6 -14 -9 -14 -32 1
-14 9 -25 25 -25 35 0 28 -27 23 -34 -6 -6 -25 -30 -34 -41 -15 -4 6 -15 8
-26 5 -31 -10 -213 -10 -229 0 -8 5 -47 10 -88 11 -62 2 -71 0 -61 -12 9 -11
7 -14 -10 -14 -12 0 -24 7 -28 16 -4 11 -13 14 -32 9 -14 -4 -53 -9 -85 -11
-36 -2 -66 -10 -77 -20 -10 -9 -27 -14 -39 -11 -11 3 -23 0 -28 -6 -8 -13 -63
-18 -56 -5 7 11 -24 10 -63 -1 -21 -6 -35 -5 -43 2 -9 9 -17 5 -35 -15 -27
-32 -35 -34 -35 -13 0 8 9 19 20 25 24 13 28 45 4 36 -13 -5 -15 -1 -12 23 3
18 0 27 -6 25 -15 -5 -60 62 -51 76 4 6 0 22 -9 35 -9 13 -16 31 -16 40 0 8
-4 15 -10 15 -5 0 -10 -5 -10 -10 0 -14 -71 -81 -106 -100 -16 -8 -31 -24 -34
-35 -10 -38 -42 -74 -75 -87 -19 -6 -32 -15 -29 -19 9 -16 -17 -20 -37 -6
l-21 15 21 7 c22 7 47 42 37 53 -3 3 2 14 11 25 17 19 17 19 -5 13 -14 -5 -29
-3 -38 5 -21 17 -40 -2 -26 -28 8 -14 6 -23 -9 -39 -11 -12 -21 -34 -22 -50
-2 -25 -7 -29 -47 -36 -26 -5 -48 -4 -54 2 -16 16 -26 12 -26 -9 0 -23 -16
-36 -25 -21 -22 35 -70 -15 -58 -61 6 -21 4 -22 -45 -16 -29 3 -54 2 -57 -4
-4 -5 -17 -9 -29 -9 -19 0 -23 -5 -21 -25 2 -16 -2 -25 -11 -25 -10 0 -14 -14
-14 -55 0 -30 5 -55 10 -55 6 0 10 -9 10 -20 0 -24 -32 -34 -90 -28 -41 4 -62
-14 -34 -30 12 -7 10 -12 -10 -31 -27 -25 -52 -25 -113 0 -38 16 -53 6 -30
-19 10 -10 17 -26 17 -36 0 -24 -30 -33 -45 -13 -15 21 -39 22 -55 2 -15 -18
-37 -20 -43 -2 -3 8 -12 5 -29 -10 -13 -13 -33 -23 -45 -23 -22 0 -60 36 -50
47 4 3 7 2 7 -4 0 -6 17 -10 40 -10 22 1 40 5 40 10 0 4 -4 7 -10 7 -5 0 -10
7 -10 15 0 9 -9 15 -25 15 -16 0 -23 4 -19 13 6 16 -35 65 -56 67 -29 4 -40 0
-40 -15 0 -8 -4 -15 -10 -15 -5 0 -10 13 -10 29 0 18 -6 31 -17 35 -12 5 -14
9 -6 14 18 11 4 48 -22 60 -14 7 -35 8 -53 3 -35 -10 -82 -53 -82 -74 0 -9 -4
-19 -10 -22 -5 -3 -10 -17 -10 -30 0 -33 -16 -39 -40 -15 -27 27 -50 26 -50
-2 0 -38 20 -96 34 -101 14 -6 11 -57 -4 -57 -13 0 -19 -42 -9 -62 6 -12 6
-18 -1 -18 -5 0 -10 -7 -10 -16 0 -21 -23 -12 -30 12 -3 10 -12 18 -20 18 -8
-1 -21 -2 -27 -3 -7 0 -13 -9 -13 -18 0 -15 -2 -16 -10 -3 -8 12 -10 8 -11
-15 -3 -59 -6 -76 -18 -88 -6 -6 -11 -19 -11 -29 0 -10 -7 -18 -16 -18 -15 0
-16 -9 -10 -66 4 -44 3 -71 -5 -80 -8 -10 -8 -22 0 -47 9 -26 9 -41 0 -60 -8
-18 -9 -30 -2 -39 15 -19 13 -238 -2 -238 -35 0 -51 62 -61 245 -1 28 -11 75
-22 106 -13 38 -19 74 -16 109 2 38 -1 58 -14 76 -21 29 -26 29 -55 0 -13 -13
-33 -28 -44 -34 -12 -7 -23 -26 -27 -48 -13 -66 -26 -84 -57 -77 -23 4 -28 2
-31 -18 -4 -34 -46 -39 -52 -7 -32 165 -38 222 -35 352 2 183 3 170 -11 251
-11 67 -22 461 -12 478 9 18 42 -28 42 -60 0 -34 33 -79 50 -68 6 4 10 19 10
34 0 22 10 34 50 60 57 37 65 57 57 140 -4 38 -2 62 5 69 22 22 31 12 25 -25
-10 -57 20 -84 41 -38 19 42 15 74 -12 86 -16 8 -22 17 -19 29 4 15 1 17 -16
13 -15 -4 -22 1 -27 21 -8 33 4 116 17 116 5 0 9 -4 9 -8 0 -5 6 -17 14 -27
13 -18 14 -17 29 11 20 38 30 127 31 269 1 61 5 116 10 124 5 8 10 55 11 105
1 50 7 101 13 113 7 12 12 37 12 56 0 19 7 48 15 65 9 17 20 55 25 84 4 29 13
66 19 81 6 16 11 42 11 59 0 36 8 63 58 198 63 171 120 280 189 356 34 39 63
75 63 80 0 5 9 15 20 22 11 7 20 19 20 28 0 16 55 74 71 74 4 0 6 7 3 14 -4
10 5 20 28 29 18 8 48 27 67 41 23 17 42 24 56 20 14 -4 24 0 28 9 3 8 21 18
39 22 18 4 46 18 61 31 16 13 34 24 42 24 7 0 48 16 91 36 54 25 96 37 134 39
64 3 98 13 133 37 14 11 19 10 26 0 6 -11 20 -10 72 3 35 8 108 17 163 20 54
2 100 6 102 8 8 8 252 -2 277 -12z m3677 -87 c0 -30 5 -63 12 -74 10 -16 9
-27 -10 -65 -27 -56 -47 -60 -37 -7 9 41 8 97 -1 156 -4 26 -2 41 7 47 22 13
29 0 29 -57z m-163 24 c-3 -8 -6 -5 -6 6 -1 11 2 17 5 13 3 -3 4 -12 1 -19z
m-63 -103 c3 -8 12 -15 21 -15 8 0 15 -9 15 -20 0 -11 -5 -20 -11 -20 -14 0
-48 41 -49 58 0 17 17 15 24 -3z m-5369 -132 c-2 -21 -8 -39 -15 -41 -7 -3
-10 0 -6 6 4 7 2 21 -5 33 -9 17 -8 23 2 30 23 14 26 11 24 -28z m-85 -33 c0
-5 -7 -10 -16 -10 -8 0 -12 5 -9 10 3 6 10 10 16 10 5 0 9 -4 9 -10z m5272
-43 l4 -34 -27 26 c-29 28 -29 41 0 41 14 0 20 -9 23 -33z m212 -8 c-8 -14
-34 -11 -34 4 0 8 3 17 7 20 9 9 34 -13 27 -24z m63 -36 c-4 -17 -4 -17 -12 0
-4 9 -4 25 0 35 8 16 8 16 12 0 3 -10 3 -26 0 -35z m-5388 -15 c0 -16 -2 -18
-6 -8 -3 8 -11 18 -17 22 -7 5 -4 8 7 8 11 0 17 -7 16 -22z m5064 -10 c31 -41
11 -52 -28 -16 -18 18 -31 36 -28 41 9 14 35 3 56 -25z m83 0 c28 -27 30 -45
7 -70 -17 -19 -17 -21 14 -105 3 -7 -2 -13 -11 -13 -9 0 -16 8 -16 20 0 11 -6
20 -14 20 -7 0 -16 -9 -19 -20 -3 -11 -11 -20 -18 -20 -10 0 -10 3 -1 12 7 7
12 20 12 30 0 10 7 21 16 25 16 6 16 48 -2 118 -8 31 1 32 32 3z m-5256 -27
c0 -11 4 -21 9 -23 14 -4 29 -80 21 -102 -5 -16 -10 -12 -23 22 -9 24 -17 51
-17 62 0 10 -4 22 -10 25 -15 10 -12 35 5 35 8 0 15 -9 15 -19z m5450 -30 c0
-6 -4 -13 -10 -16 -5 -3 -10 1 -10 9 0 9 5 16 10 16 6 0 10 -4 10 -9z m-250
-42 c0 -5 -4 -9 -10 -9 -5 0 -10 7 -10 16 0 8 5 12 10 9 6 -3 10 -10 10 -16z
m-5090 1 c0 -5 -2 -10 -4 -10 -3 0 -8 5 -11 10 -3 6 -1 10 4 10 6 0 11 -4 11
-10z m-179 -123 c-8 -8 -11 -7 -11 4 0 20 13 34 18 19 3 -7 -1 -17 -7 -23z
m119 17 c0 -8 -5 -24 -11 -35 -8 -16 -7 -25 5 -38 9 -10 16 -28 16 -42 0 -26
-16 -57 -24 -48 -7 7 -23 153 -18 168 6 17 32 13 32 -5z m5115 -54 c0 -7 -6
-15 -12 -17 -8 -3 -13 4 -13 17 0 13 5 20 13 18 6 -3 12 -11 12 -18z m-4989
-147 c-11 -11 -19 6 -11 24 8 17 8 17 12 0 3 -10 2 -21 -1 -24z m853 21 c45
-9 38 -28 -16 -46 -27 -9 -73 -26 -103 -38 -138 -55 -181 -59 -139 -13 24 24
100 63 125 63 8 0 23 9 34 20 21 21 46 24 99 14z m4360 -21 c0 -10 -4 -27 -9
-38 -7 -16 -9 -13 -9 18 -1 20 4 37 9 37 6 0 10 -8 9 -17z m-5324 -42 c5 -17
4 -22 -6 -19 -8 3 -15 18 -17 34 -4 33 11 24 23 -15z m100 -9 c-1 -1 -10 0
-19 4 -13 5 -14 9 -4 21 10 13 13 13 19 -4 3 -10 5 -19 4 -21z m5272 -24 c-3
-7 -5 -2 -5 12 0 14 2 19 5 13 2 -7 2 -19 0 -25z m-5296 -51 c-16 -16 -20 -5
-8 23 9 22 11 23 14 6 3 -10 0 -23 -6 -29z m4157 7 c28 -4 52 -10 52 -15 0 -5
7 -9 15 -9 8 0 15 6 15 14 0 9 7 12 20 9 15 -4 19 -11 15 -24 -5 -14 0 -22 17
-28 13 -5 36 -21 52 -35 16 -14 38 -26 48 -26 23 0 75 -25 103 -50 11 -10 33
-24 48 -32 41 -20 211 -249 196 -262 -8 -8 -17 -3 -33 18 -11 17 -30 39 -42
50 -12 12 -29 36 -38 54 -30 59 -120 140 -163 148 -21 3 -45 13 -54 21 -9 7
-25 15 -36 17 -11 3 -42 13 -69 24 -120 48 -266 82 -358 82 -51 0 -53 18 -4
40 44 20 86 21 216 4z m-3274 -23 c4 -5 -6 -19 -21 -31 -16 -12 -20 -19 -11
-16 9 2 34 8 55 11 21 4 55 13 76 21 54 20 151 16 179 -7 11 -11 27 -19 35
-19 13 0 93 -49 93 -57 0 -2 -48 -1 -108 3 -146 9 -330 -22 -363 -62 -6 -8
-25 -14 -41 -14 -17 0 -38 -9 -51 -23 -12 -13 -49 -41 -82 -62 -33 -22 -63
-44 -67 -49 -4 -6 -10 -8 -13 -4 -8 8 23 68 35 68 5 0 16 14 25 30 9 17 21 30
28 30 8 0 23 10 34 23 11 12 44 44 72 70 28 27 51 56 51 66 0 10 3 21 7 24 10
10 61 8 67 -2z m-190 -102 c-10 -11 -21 -19 -26 -19 -5 0 -16 -7 -25 -15 -8
-9 -18 -13 -22 -10 -3 4 2 12 12 19 9 7 17 19 17 26 0 21 33 40 48 28 10 -9 9
-15 -4 -29z m-831 -13 c3 -8 3 -23 0 -34 -2 -11 0 -23 6 -26 17 -11 14 -56 -4
-56 -10 0 -15 10 -15 28 0 15 -3 44 -6 65 -6 36 8 53 19 23z m79 -77 c-1 -19
-7 -38 -12 -43 -14 -14 -12 -50 2 -64 15 -15 4 -27 -16 -19 -13 5 -15 20 -12
79 2 40 4 76 5 80 1 3 9 5 19 3 13 -2 16 -10 14 -36z m-55 -146 c-3 -3 -11 -2
-17 2 -9 6 -9 10 1 16 14 8 27 -7 16 -18z m69 -28 c3 -14 3 -40 -1 -58 -3 -17
-8 -59 -9 -92 -2 -33 -8 -71 -13 -84 -9 -23 -10 -22 -16 16 -4 22 -14 43 -22
47 -17 6 -20 42 -4 52 7 4 9 21 5 45 -5 31 -3 39 13 44 13 4 17 12 13 30 -6
34 25 34 34 0z m819 -146 l7 -86 -26 0 c-15 0 -29 3 -32 8 -3 5 -12 9 -20 9
-11 0 -13 -6 -9 -20 3 -11 3 -20 -2 -20 -5 0 -13 -10 -18 -22 -7 -17 -17 -22
-35 -20 -14 2 -27 6 -29 7 -2 2 2 26 8 52 7 26 11 50 9 53 -4 8 27 49 78 102
34 36 49 46 55 36 3 -7 10 -52 14 -99z m3751 63 c28 -23 54 -67 54 -91 0 -17
-41 -42 -75 -46 -5 0 -14 -3 -20 -7 -5 -3 -21 -4 -35 -3 -14 2 -35 4 -47 4
-26 1 -31 26 -7 35 10 4 14 14 11 25 -6 24 0 33 47 70 45 36 45 36 72 13z
m289 -12 c3 -11 11 -20 16 -20 5 0 9 -11 9 -25 0 -13 9 -33 20 -43 22 -21 18
-52 -7 -52 -14 0 -73 52 -73 64 0 3 9 6 20 6 24 0 26 19 5 46 -8 10 -15 25
-15 32 0 19 18 14 25 -8z m266 -5 c-1 -15 -24 -12 -29 3 -3 9 2 13 12 10 10
-1 17 -7 17 -13z m-4137 -23 c6 -11 -5 -26 -29 -40 -19 -11 -19 -11 5 -12 19
0 21 -3 12 -12 -9 -9 -16 -8 -30 5 -16 17 -16 19 1 28 9 6 17 17 17 24 0 16
16 20 24 7z m4184 -52 c13 0 22 -6 22 -15 0 -9 -9 -15 -24 -15 -16 0 -26 -7
-29 -22 -8 -27 -4 -33 35 -52 44 -22 51 -20 45 12 -6 30 7 62 20 49 4 -4 8
-34 8 -65 1 -31 6 -68 12 -82 9 -23 8 -178 -3 -208 -2 -7 -8 -11 -14 -7 -6 4
-5 14 1 29 9 19 6 32 -15 72 -14 27 -26 45 -26 40 0 -5 -7 -3 -15 4 -8 7 -25
10 -36 7 -42 -11 -65 46 -35 85 8 11 11 40 10 80 -2 35 -4 70 -4 78 0 13 -1
13 -10 0 -5 -8 -12 -11 -15 -8 -13 13 7 30 29 24 11 -3 31 -6 44 -6z m-92 -25
c-1 -18 -5 -23 -17 -20 -22 7 -48 -50 -30 -68 8 -8 11 -8 11 1 0 7 5 12 10 12
6 0 10 -6 10 -14 0 -7 10 -20 23 -29 21 -14 21 -15 5 -34 -10 -11 -18 -25 -18
-33 0 -9 -6 -8 -22 4 -13 9 -33 21 -45 26 -13 5 -23 15 -23 22 0 7 -4 19 -9
27 -8 12 -12 12 -25 2 -14 -12 -16 -10 -16 15 1 42 44 84 85 84 9 0 18 7 21
15 4 8 14 15 24 15 13 0 17 -7 16 -25z m-5145 -144 c-14 -25 -14 -111 -1 -131
8 -12 10 -10 10 11 0 24 16 49 32 49 14 0 9 -27 -7 -40 -8 -7 -15 -26 -15 -42
0 -19 -4 -28 -12 -26 -17 6 -41 -64 -26 -73 6 -4 8 -15 4 -24 -17 -46 -28 16
-30 165 -1 120 0 126 24 153 l25 29 3 -26 c2 -14 -2 -34 -7 -45z m5409 -12 c0
-23 -28 -26 -37 -3 -6 16 15 37 29 28 4 -3 8 -14 8 -25z m-403 -1 c-3 -8 -6
-5 -6 6 -1 11 2 17 5 13 3 -3 4 -12 1 -19z m-4967 -18 c0 -21 -15 -27 -25 -10
-7 12 2 30 16 30 5 0 9 -9 9 -20z m727 -80 c4 -14 13 -20 32 -19 34 1 63 12
60 24 -1 6 6 12 16 14 14 2 16 -1 11 -15 -6 -16 3 -17 140 -10 115 5 145 3
142 -6 -6 -18 -66 -26 -243 -33 -113 -5 -154 -10 -167 -22 -21 -19 -53 -13
-52 10 1 10 -5 17 -15 17 -14 1 -14 2 -1 13 9 7 14 20 12 30 -5 27 58 24 65
-3z m4480 -51 c3 -16 10 -32 14 -35 5 -3 9 -16 9 -30 0 -29 -25 -33 -33 -4 -3
13 -10 18 -21 14 -26 -10 -48 14 -33 36 9 16 7 23 -18 45 -24 21 -27 27 -16
34 25 16 91 -24 98 -60z m-4583 33 c13 -7 -17 -22 -46 -22 -31 0 -37 14 -11
28 15 9 33 7 57 -6z m4466 -33 c0 -5 -9 -9 -20 -9 -22 0 -27 16 -7 23 15 5 27
-1 27 -14z m-5409 -58 c10 -34 9 -44 -7 -72 -29 -49 -40 -46 -47 12 -5 37 -2
57 10 75 21 33 30 30 44 -15z m5279 -44 c0 -5 -4 -5 -10 -2 -5 3 -10 14 -10
23 0 15 2 15 10 2 5 -8 10 -19 10 -23z m-5270 -244 c0 -30 -4 -43 -14 -43 -18
0 -22 14 -25 85 l-2 60 21 -30 c12 -18 20 -46 20 -72z m18 -81 c9 -6 11 -21 6
-50 -5 -34 -9 -40 -20 -31 -14 12 -20 89 -6 89 4 0 13 -4 20 -8z m5399 -137
c-7 -16 -37 -21 -37 -5 0 10 32 31 39 25 2 -2 1 -11 -2 -20z m-5310 -47 c-3
-8 -6 -5 -6 6 -1 11 2 17 5 13 3 -3 4 -12 1 -19z m3353 -28 c0 -5 6 -10 13
-10 6 -1 37 -28 67 -61 30 -33 74 -81 98 -105 25 -27 42 -55 42 -69 0 -13 5
-25 12 -27 6 -2 9 -9 7 -16 -6 -17 -79 55 -79 77 0 18 -52 78 -106 122 -16 13
-33 32 -36 41 -4 9 -17 18 -30 20 -30 4 -38 38 -9 38 12 0 21 -4 21 -10z
m1980 -5 c0 -8 -21 -23 -46 -35 -70 -30 -92 -26 -57 12 9 10 28 18 42 18 14 0
33 5 41 10 20 13 20 13 20 -5z m-3503 -57 c-3 -8 -6 -5 -6 6 -1 11 2 17 5 13
3 -3 4 -12 1 -19z m308 -72 c-14 -31 -33 -59 -43 -63 -9 -3 -29 -17 -44 -31
-23 -21 -28 -23 -28 -9 0 9 4 17 9 17 5 0 19 19 30 43 12 23 29 51 39 63 17
20 54 45 60 40 1 -2 -9 -29 -23 -60z m-432 29 c1 -5 -6 -11 -15 -13 -11 -2
-18 3 -18 13 0 17 30 18 33 0z m-193 -135 c0 -5 -2 -10 -4 -10 -3 0 -8 5 -11
10 -3 6 -1 10 4 10 6 0 11 -4 11 -10z m447 -481 c6 -6 17 -11 25 -13 18 -2 68
-41 68 -53 0 -4 9 -14 21 -21 25 -16 73 -117 65 -137 -4 -11 2 -15 22 -15 19
0 39 -12 62 -35 19 -19 39 -35 46 -35 16 0 27 -30 16 -44 -5 -6 -11 -18 -15
-27 -4 -12 0 -15 18 -12 16 4 24 -1 28 -16 3 -13 13 -21 26 -21 28 0 27 16 -1
24 -22 7 -22 7 -3 15 11 5 22 4 23 -1 7 -16 66 -42 70 -29 5 16 19 14 26 -4 7
-20 -13 -63 -33 -69 -9 -3 -83 -21 -165 -41 -220 -53 -299 -78 -437 -135 -68
-28 -142 -53 -164 -56 l-39 -4 54 51 c30 29 65 58 78 67 12 8 22 20 22 28 0 7
18 33 39 58 50 57 47 86 -8 86 -45 0 -54 7 -40 31 9 17 6 19 -26 19 -19 0 -35
3 -35 8 0 4 -10 12 -22 17 -23 11 -37 35 -19 35 6 0 11 -7 11 -15 0 -9 9 -15
24 -15 37 0 76 18 76 34 0 8 5 16 11 18 20 7 -20 38 -48 38 -30 0 -27 20 5 35
12 5 22 15 22 22 0 7 8 20 18 30 24 23 63 79 82 118 10 21 24 31 43 33 19 2
27 9 27 23 0 21 10 25 27 8z m1213 -444 c19 -4 41 -12 49 -19 11 -8 15 -8 18
2 7 20 50 14 79 -13 15 -14 31 -25 35 -25 14 0 10 -30 -5 -36 -7 -3 -42 2 -77
11 -35 9 -93 22 -129 30 -108 22 -124 37 -77 68 18 12 26 13 47 2 14 -7 41
-16 60 -20z m-846 -577 c13 -22 1 -36 -39 -43 -20 -4 -37 -1 -50 9 -20 16 -20
16 4 37 28 23 69 22 85 -3z m-314 -29 c0 -5 -13 -9 -30 -9 -35 0 -41 17 -7 22
26 5 37 1 37 -13z m80 1 c0 -5 -4 -10 -10 -10 -5 0 -10 5 -10 10 0 6 5 10 10
10 6 0 10 -4 10 -10z m-6 -167 c4 -5 22 -9 39 -9 31 -1 107 -16 192 -37 30 -7
36 -11 22 -16 -30 -11 -240 23 -302 49 -11 5 -27 11 -35 13 -8 3 6 6 31 6 25
1 49 -2 53 -6z m514 -53 c82 0 85 -1 69 -17 -15 -15 -35 -18 -126 -17 -71 1
-116 6 -132 15 -23 14 -22 14 26 20 28 3 56 4 63 2 8 -1 52 -3 100 -3z m-1625
-935 c-10 -13 -20 -18 -22 -12 -2 6 1 13 8 15 6 2 11 10 11 18 0 9 5 12 10 9
6 -4 3 -15 -7 -30z"/>
<path d="M5560 8590 c0 -5 5 -10 11 -10 5 0 7 5 4 10 -3 6 -8 10 -11 10 -2 0
-4 -4 -4 -10z"/>
<path d="M5620 8530 c0 -5 9 -10 21 -10 11 0 17 5 14 10 -3 6 -13 10 -21 10
-8 0 -14 -4 -14 -10z"/>
<path d="M3039 8358 c-12 -23 -12 -23 10 -4 23 21 26 26 11 26 -5 0 -15 -10
-21 -22z"/>
<path d="M5860 8309 c0 -5 5 -7 10 -4 6 3 10 8 10 11 0 2 -4 4 -10 4 -5 0 -10
-5 -10 -11z"/>
<path d="M5735 8230 c-6 -9 1 -14 17 -11 4 0 10 -9 14 -22 9 -30 42 -60 60
-53 7 3 14 1 14 -4 0 -5 7 -7 15 -4 8 4 15 1 15 -5 0 -6 11 -17 25 -23 14 -6
25 -19 25 -30 0 -14 8 -18 36 -18 27 0 37 -5 41 -20 3 -11 12 -20 19 -20 8 0
23 -9 34 -20 11 -11 25 -20 30 -20 6 0 21 -6 33 -14 26 -17 195 -27 200 -12 2
5 11 7 21 3 9 -4 15 -11 12 -15 -3 -5 5 -7 18 -5 13 3 33 0 45 -7 12 -6 26 -8
31 -5 12 7 -20 45 -38 45 -7 0 -16 8 -19 18 -18 48 -93 89 -78 43 9 -29 -16
-38 -33 -13 -12 18 -24 22 -71 22 -36 0 -69 7 -92 19 -23 13 -41 16 -50 10
-21 -13 -27 -11 -34 10 -3 11 -15 23 -26 26 -20 7 -26 30 -9 40 6 3 29 7 51 7
24 0 36 4 29 8 -7 4 -10 15 -7 23 8 20 -3 29 -20 16 -27 -23 -180 2 -199 32
-3 5 -14 -1 -24 -13 l-18 -23 -24 23 c-27 25 -34 27 -43 12z"/>
<path d="M4980 8190 c0 -5 7 -10 16 -10 8 0 12 5 9 10 -3 6 -10 10 -16 10 -5
0 -9 -4 -9 -10z"/>
<path d="M5715 8190 c-3 -5 -1 -10 4 -10 6 0 11 5 11 10 0 6 -2 10 -4 10 -3 0
-8 -4 -11 -10z"/>
<path d="M5185 8170 c-4 -6 5 -10 19 -10 14 0 26 5 26 10 0 6 -9 10 -19 10
-11 0 -23 -4 -26 -10z"/>
<path d="M6415 8150 c3 -5 8 -10 11 -10 2 0 4 5 4 10 0 6 -5 10 -11 10 -5 0
-7 -4 -4 -10z"/>
<path d="M4810 8140 c0 -5 4 -10 9 -10 6 0 13 5 16 10 3 6 -1 10 -9 10 -9 0
-16 -4 -16 -10z"/>
<path d="M4790 8126 c0 -9 5 -16 10 -16 6 0 10 4 10 9 0 6 -4 13 -10 16 -5 3
-10 -1 -10 -9z"/>
<path d="M6386 8123 c-9 -9 -7 -33 3 -33 12 0 22 28 12 34 -5 3 -11 3 -15 -1z"/>
<path d="M5280 8101 c0 -5 9 -11 20 -14 13 -3 20 0 20 9 0 8 -9 14 -20 14 -11
0 -20 -4 -20 -9z"/>
<path d="M6478 8063 c6 -2 18 -2 25 0 6 3 1 5 -13 5 -14 0 -19 -2 -12 -5z"/>
<path d="M4627 8043 c-9 -2 -15 -9 -12 -14 9 -14 22 -11 29 6 3 8 4 14 3 14
-1 -1 -10 -3 -20 -6z"/>
<path d="M4458 8013 c7 -3 16 -2 19 1 4 3 -2 6 -13 5 -11 0 -14 -3 -6 -6z"/>
<path d="M4495 8010 c3 -5 12 -10 20 -10 8 0 17 5 20 10 4 6 -5 10 -20 10 -15
0 -24 -4 -20 -10z"/>
<path d="M4560 8010 c0 -5 7 -10 15 -10 8 0 15 5 15 10 0 6 -7 10 -15 10 -8 0
-15 -4 -15 -10z"/>
<path d="M5104 7989 c-53 -29 -54 -31 -14 -27 19 1 41 11 49 21 20 27 9 29
-35 6z"/>
<path d="M5902 7978 c3 -7 13 -15 22 -16 12 -3 17 1 14 10 -3 7 -13 15 -22 16
-12 3 -17 -1 -14 -10z"/>
<path d="M5703 7945 c-3 -9 -3 -19 1 -22 8 -9 37 18 30 28 -8 14 -24 11 -31
-6z"/>
<path d="M5780 7931 c0 -12 -6 -21 -15 -21 -16 0 -20 -15 -7 -24 5 -3 16 4 25
15 20 23 43 25 51 4 7 -19 26 -20 26 -1 0 18 -19 33 -53 41 -23 6 -27 4 -27
-14z"/>
<path d="M4575 7930 c3 -5 12 -10 20 -10 8 0 17 5 20 10 4 6 -5 10 -20 10 -15
0 -24 -4 -20 -10z"/>
<path d="M4677 7923 c-12 -11 -8 -23 8 -23 8 0 15 7 15 15 0 16 -12 20 -23 8z"/>
<path d="M6040 7918 c0 -20 21 -38 45 -38 25 0 91 -53 100 -80 3 -10 19 -21
36 -25 16 -4 36 -13 44 -22 9 -8 23 -12 32 -9 15 6 15 9 -4 27 -11 12 -36 24
-54 28 -29 6 -34 11 -37 38 -2 23 -13 37 -40 56 -46 30 -122 46 -122 25z"/>
<path d="M5986 7873 c4 -16 7 -29 8 -30 1 -1 22 1 46 4 38 6 41 8 20 13 -15 4
-24 13 -24 23 1 12 -6 17 -27 17 -27 0 -29 -2 -23 -27z"/>
<path d="M5570 7879 c0 -5 8 -9 18 -9 10 0 22 -4 28 -9 5 -5 25 -14 45 -20 34
-11 84 -51 63 -51 -5 1 -34 9 -64 20 -53 18 -76 18 -65 0 3 -5 12 -7 19 -4 8
3 26 -6 41 -20 15 -14 36 -26 46 -26 11 0 19 -7 19 -15 0 -8 8 -19 18 -24 14
-8 20 -4 30 18 8 19 24 30 57 40 46 13 81 9 70 -9 -3 -5 -21 -10 -38 -10 -21
0 -36 -7 -44 -20 -17 -26 -2 -33 44 -21 59 14 119 13 133 -4 17 -20 40 -19 56
3 13 16 15 16 28 0 8 -12 27 -18 50 -18 35 0 37 2 34 28 -2 17 -8 26 -17 24
-8 -2 -24 1 -35 6 -12 5 -38 17 -58 25 -21 9 -38 21 -38 27 0 5 -7 7 -15 4
-23 -9 -18 -22 18 -44 19 -12 25 -20 16 -20 -22 0 -86 27 -94 40 -3 5 -15 10
-27 10 -11 0 -37 14 -58 30 -39 31 -60 38 -60 20 0 -5 5 -10 10 -10 6 0 10 -5
10 -11 0 -12 -52 -4 -84 13 -18 10 -18 12 -3 23 9 7 17 14 17 16 0 2 -38 5
-85 6 -47 1 -85 -3 -85 -8z"/>
<path d="M5872 7863 c4 -22 38 -30 38 -10 0 8 -7 18 -16 21 -23 9 -26 8 -22
-11z"/>
<path d="M5938 7823 c7 -3 16 -2 19 1 4 3 -2 6 -13 5 -11 0 -14 -3 -6 -6z"/>
<path d="M6197 7753 c-4 -3 -7 -17 -7 -30 0 -12 -5 -23 -11 -23 -6 0 -22 -9
-36 -20 -24 -19 -27 -19 -44 -4 -14 12 -29 15 -57 10 -27 -4 -49 0 -75 13 -20
10 -39 16 -42 13 -12 -12 -4 -32 13 -32 9 0 28 -9 42 -20 l25 -20 -23 0 c-12
0 -40 6 -62 12 -32 10 -40 18 -40 36 0 15 -5 22 -12 19 -7 -2 -12 -10 -10 -16
1 -6 -5 -14 -13 -17 -22 -9 -19 -20 12 -49 29 -26 59 -33 65 -15 4 13 25 14
98 7 30 -4 80 -7 110 -8 30 -1 60 -6 67 -11 7 -6 14 -5 18 3 8 12 -11 28 -35
29 -20 1 30 29 53 30 9 0 17 3 17 7 0 14 -35 93 -41 93 -3 0 -9 -3 -12 -7z"/>
<path d="M6986 7732 c-6 -9 58 -62 74 -62 21 0 4 23 -33 47 -20 12 -38 19 -41
15z"/>
<path d="M3596 7721 c-4 -7 -5 -15 -2 -18 9 -9 19 4 14 18 -4 11 -6 11 -12 0z"/>
<path d="M5528 7713 c7 -3 16 -2 19 1 4 3 -2 6 -13 5 -11 0 -14 -3 -6 -6z"/>
<path d="M5762 7663 c2 -27 8 -39 21 -41 25 -5 22 39 -4 61 -20 18 -20 17 -17
-20z"/>
<path d="M6785 7670 c3 -5 10 -10 16 -10 5 0 9 5 9 10 0 6 -7 10 -16 10 -8 0
-12 -4 -9 -10z"/>
<path d="M7072 7629 c2 -7 10 -15 17 -17 8 -3 12 1 9 9 -2 7 -10 15 -17 17 -8
3 -12 -1 -9 -9z"/>
<path d="M3540 7619 c0 -5 5 -7 10 -4 6 3 10 8 10 11 0 2 -4 4 -10 4 -5 0 -10
-5 -10 -11z"/>
<path d="M6573 7623 c-25 -9 -12 -23 21 -23 40 0 66 8 66 21 0 9 -66 11 -87 2z"/>
<path d="M3497 7554 c-11 -14 -16 -28 -13 -31 9 -9 58 27 53 40 -6 20 -22 17
-40 -9z"/>
<path d="M7120 7561 c0 -5 12 -12 28 -16 15 -3 44 -19 64 -36 51 -40 57 -20 8
25 -27 24 -50 36 -70 36 -17 0 -30 -4 -30 -9z"/>
<path d="M6160 7550 c0 -5 4 -10 9 -10 6 0 13 5 16 10 3 6 -1 10 -9 10 -9 0
-16 -4 -16 -10z"/>
<path d="M7360 7540 c0 -5 9 -10 20 -10 11 0 20 5 20 10 0 6 -9 10 -20 10 -11
0 -20 -4 -20 -10z"/>
<path d="M7802 7519 c2 -7 10 -15 17 -17 8 -3 12 1 9 9 -2 7 -10 15 -17 17 -8
3 -12 -1 -9 -9z"/>
<path d="M7310 7511 c0 -6 5 -13 10 -16 6 -3 10 1 10 9 0 9 -4 16 -10 16 -5 0
-10 -4 -10 -9z"/>
<path d="M7417 7504 c-8 -8 3 -34 14 -34 5 0 9 9 9 20 0 19 -11 26 -23 14z"/>
<path d="M6820 7480 c0 -5 7 -7 15 -4 8 4 15 8 15 10 0 2 -7 4 -15 4 -8 0 -15
-4 -15 -10z"/>
<path d="M3488 7473 c6 -2 18 -2 25 0 6 3 1 5 -13 5 -14 0 -19 -2 -12 -5z"/>
<path d="M3852 7468 c-18 -18 -14 -28 8 -28 11 0 20 6 20 14 0 21 -15 27 -28
14z"/>
<path d="M6870 7462 c0 -5 6 -17 14 -28 12 -16 17 -17 28 -6 11 11 10 16 -6
28 -22 16 -36 18 -36 6z"/>
<path d="M7879 7452 c-15 -17 -15 -20 2 -30 15 -10 20 -8 29 7 22 41 -1 58
-31 23z"/>
<path d="M6270 7445 c0 -8 7 -15 15 -15 8 0 15 7 15 15 0 8 -7 15 -15 15 -8 0
-15 -7 -15 -15z"/>
<path d="M6130 7436 c0 -2 7 -6 15 -10 8 -3 15 -1 15 4 0 6 -7 10 -15 10 -8 0
-15 -2 -15 -4z"/>
<path d="M7317 7433 c-12 -12 -7 -33 8 -33 17 0 19 9 7 28 -5 7 -11 9 -15 5z"/>
<path d="M3550 7421 c-8 -6 -28 -7 -45 -5 -26 5 -28 4 -14 -8 12 -9 14 -20 8
-36 -5 -12 -4 -22 0 -22 13 0 71 56 71 69 0 13 -1 13 -20 2z"/>
<path d="M6186 7408 c-11 -36 -16 -72 -8 -60 6 8 18 11 34 7 18 -5 27 -2 31 9
4 9 17 21 29 26 l23 9 -22 0 c-12 1 -25 6 -28 11 -9 14 -55 12 -59 -2z"/>
<path d="M6805 7392 c-16 -8 -31 -19 -33 -24 -5 -12 -52 -10 -52 2 0 6 -7 10
-15 10 -24 0 -18 -40 7 -49 29 -10 75 6 116 41 48 41 37 51 -23 20z"/>
<path d="M3600 7380 c0 -5 6 -10 14 -10 8 0 18 5 21 10 3 6 -3 10 -14 10 -12
0 -21 -4 -21 -10z"/>
<path d="M6880 7376 c0 -9 7 -16 16 -16 9 0 14 5 12 12 -6 18 -28 21 -28 4z"/>
<path d="M2370 7345 c-7 -9 -10 -18 -7 -22 8 -7 37 15 37 28 0 14 -16 11 -30
-6z"/>
<path d="M6465 7340 c-27 -9 -53 -16 -56 -14 -4 2 -12 -2 -18 -10 -9 -11 -6
-14 16 -15 57 -3 66 -2 85 16 19 17 20 17 39 -8 14 -20 25 -25 44 -21 41 7 38
19 -11 46 -26 14 -47 25 -48 25 0 -1 -23 -9 -51 -19z"/>
<path d="M6620 7310 c0 -11 48 -25 56 -17 4 3 3 10 -1 16 -8 14 -55 14 -55 1z"/>
<path d="M2362 7278 c-16 -16 -15 -40 2 -63 12 -17 14 -15 20 20 8 41 -3 62
-22 43z"/>
<path d="M7255 7280 c3 -5 8 -10 11 -10 2 0 4 5 4 10 0 6 -5 10 -11 10 -5 0
-7 -4 -4 -10z"/>
<path d="M7107 7273 c-3 -4 1 -17 9 -28 10 -13 14 -15 14 -4 0 20 -16 43 -23
32z"/>
<path d="M7327 7243 c-2 -5 -7 -20 -11 -36 -8 -35 14 -46 50 -22 14 9 32 14
40 11 24 -9 -7 31 -33 43 -28 13 -40 14 -46 4z"/>
<path d="M7194 7221 c-17 -9 -35 -25 -40 -36 -5 -12 -19 -20 -34 -21 -52 -2
-60 -4 -60 -14 0 -5 7 -10 15 -10 9 0 18 -6 21 -13 5 -15 60 -11 70 4 9 15 44
10 44 -5 0 -33 20 -23 41 20 20 42 21 47 6 56 -10 5 -17 16 -17 23 0 18 -5 17
-46 -4z m36 -31 c0 -5 -7 -7 -15 -4 -8 4 -15 8 -15 10 0 2 7 4 15 4 8 0 15 -4
15 -10z"/>
<path d="M7030 7200 c0 -5 5 -10 10 -10 6 0 10 5 10 10 0 6 -4 10 -10 10 -5 0
-10 -4 -10 -10z"/>
<path d="M2316 7165 c-4 -12 -1 -16 14 -13 24 3 28 22 7 26 -8 2 -17 -4 -21
-13z"/>
<path d="M7400 7155 c0 -8 5 -15 10 -15 6 0 10 -7 10 -15 0 -8 -7 -15 -15 -15
-22 0 -18 -27 4 -33 13 -3 22 3 30 21 7 14 8 28 3 31 -5 3 -11 14 -15 24 -8
21 -27 23 -27 2z"/>
<path d="M2365 7110 c-10 -17 12 -37 25 -24 8 8 6 15 -4 23 -10 9 -16 9 -21 1z"/>
<path d="M2310 7094 c0 -8 5 -12 10 -9 6 4 8 11 5 16 -9 14 -15 11 -15 -7z"/>
<path d="M2350 7051 c-9 -17 -7 -20 19 -19 43 1 56 -10 35 -33 -29 -32 -2 -63
35 -40 11 7 11 15 3 40 -6 17 -8 39 -5 48 5 13 2 15 -15 11 -12 -4 -25 -2 -28
3 -9 15 -33 10 -44 -10z"/>
<path d="M2615 7060 c-3 -5 -1 -10 4 -10 6 0 11 5 11 10 0 6 -2 10 -4 10 -3 0
-8 -4 -11 -10z"/>
<path d="M2350 6904 c0 -24 11 -28 42 -16 21 9 11 27 -19 34 -19 5 -23 2 -23
-18z"/>
<path d="M2420 6920 c0 -5 5 -10 10 -10 6 0 10 5 10 10 0 6 -4 10 -10 10 -5 0
-10 -4 -10 -10z"/>
<path d="M2057 6446 c13 -28 19 -33 30 -24 11 9 11 14 0 32 -8 12 -22 22 -31
24 -15 3 -15 1 1 -32z"/>
<path d="M1969 5744 c-12 -14 -11 -16 5 -13 11 2 21 10 24 17 5 17 -13 15 -29
-4z"/>
<path d="M1937 5704 c-9 -10 4 -34 19 -34 8 0 14 4 14 9 0 12 -26 32 -33 25z"/>
<path d="M7245 6450 c3 -5 10 -10 16 -10 5 0 9 5 9 10 0 6 -7 10 -16 10 -8 0
-12 -4 -9 -10z"/>
<path d="M7333 6425 c-3 -9 -3 -18 0 -21 9 -9 27 6 27 22 0 19 -19 18 -27 -1z"/>
<path d="M2668 6303 c-10 -2 -18 -11 -18 -19 0 -8 -8 -14 -18 -14 -11 0 -25
-8 -34 -17 -28 -34 -80 -151 -75 -169 4 -16 5 -16 6 2 1 20 31 39 55 35 5 -1
6 9 4 22 -4 20 -1 23 14 19 21 -5 47 23 48 51 0 10 14 32 30 49 43 43 39 55
-12 41z"/>
<path d="M7357 6273 c-14 -13 -6 -33 12 -33 16 0 31 18 31 36 0 7 -36 5 -43
-3z"/>
<path d="M7360 6112 c0 -5 10 -19 21 -31 19 -20 23 -21 30 -8 14 23 0 47 -27
47 -13 0 -24 -4 -24 -8z"/>
<path d="M7422 6054 c1 -9 9 -19 16 -22 9 -3 13 2 10 14 -1 9 -9 19 -16 22 -9
3 -13 -2 -10 -14z"/>
<path d="M2561 6024 c0 -11 3 -14 6 -6 3 7 2 16 -1 19 -3 4 -6 -2 -5 -13z"/>
<path d="M2240 5124 c0 -8 5 -12 10 -9 6 3 10 10 10 16 0 5 -4 9 -10 9 -5 0
-10 -7 -10 -16z"/>
<path d="M2275 5081 c-3 -5 -1 -12 5 -16 5 -3 10 1 10 9 0 18 -6 21 -15 7z"/>
<path d="M3870 4906 c0 -2 7 -6 15 -10 8 -3 15 -1 15 4 0 6 -7 10 -15 10 -8 0
-15 -2 -15 -4z"/>
<path d="M3804 4873 c10 -11 36 -12 36 -2 0 5 -10 9 -22 9 -12 0 -18 -3 -14
-7z"/>
<path d="M4320 4860 c0 -11 5 -20 10 -20 6 0 10 9 10 20 0 11 -4 20 -10 20 -5
0 -10 -9 -10 -20z"/>
<path d="M2262 4815 c-19 -19 -22 -30 -17 -55 4 -19 2 -36 -6 -46 -6 -8 -9
-17 -5 -21 3 -3 6 -2 6 4 0 6 8 9 18 6 24 -6 42 34 42 92 0 50 -5 53 -38 20z"/>
<path d="M3736 4824 c-3 -9 -4 -20 -1 -25 3 -4 -1 -21 -9 -36 -14 -27 -13 -28
13 -27 41 1 116 33 130 55 15 25 0 49 -30 49 -24 0 -25 -16 -1 -29 14 -9 13
-10 -11 -11 -16 0 -42 9 -57 20 -25 18 -29 18 -34 4z"/>
<path d="M2218 4673 c-2 -14 -8 -58 -10 -88 -2 -22 -11 -33 -33 -44 -16 -8
-34 -20 -38 -28 -4 -7 -15 -13 -22 -13 -8 0 -15 -4 -15 -9 0 -21 22 -21 55 -1
34 21 55 20 55 -3 1 -7 11 -25 24 -41 23 -28 24 -28 31 -7 3 11 3 26 -1 33
-11 17 -12 161 -1 175 5 7 6 17 2 23 -7 11 -44 14 -47 3z"/>
<path d="M2666 4415 c-3 -9 0 -15 8 -15 7 0 13 7 13 15 0 8 -4 15 -8 15 -4 0
-9 -7 -13 -15z"/>
<path d="M2175 4390 c-3 -5 -15 -10 -26 -10 -10 0 -19 -7 -19 -15 0 -8 6 -15
13 -15 13 0 57 35 57 45 0 9 -19 5 -25 -5z"/>
<path d="M2476 4112 c-8 -13 11 -35 23 -28 16 10 14 36 -3 36 -8 0 -17 -4 -20
-8z"/>
<path d="M2292 4039 c3 -50 21 -59 26 -13 2 19 -3 36 -13 44 -15 12 -16 9 -13
-31z"/>
<path d="M2130 3895 c0 -9 5 -15 11 -13 6 2 11 8 11 13 0 5 -5 11 -11 13 -6 2
-11 -4 -11 -13z"/>
<path d="M2140 3850 c0 -5 5 -10 10 -10 6 0 10 5 10 10 0 6 -4 10 -10 10 -5 0
-10 -4 -10 -10z"/>
<path d="M7490 5456 c0 -11 9 -16 26 -16 31 0 28 23 -4 28 -15 2 -22 -2 -22
-12z"/>
<path d="M4210 3668 c1 -17 74 -51 97 -45 13 3 8 8 -19 20 -20 9 -39 21 -43
27 -9 14 -35 12 -35 -2z"/>
<path d="M3879 3666 c-7 -30 -2 -66 9 -66 6 0 12 5 12 10 0 6 9 10 20 10 11 0
20 -4 20 -10 0 -16 32 -11 46 8 13 16 13 16 14 -3 1 -18 1 -19 11 -2 5 9 19
17 29 17 28 0 25 20 -2 21 -37 1 -71 5 -115 13 -24 4 -44 5 -44 2z"/>
<path d="M3982 3578 c-5 -7 -13 -23 -16 -35 -7 -21 -6 -22 23 -7 19 9 31 23
31 35 0 21 -22 25 -38 7z"/>
<path d="M4068 3553 c-15 -32 -15 -34 0 -31 10 2 17 10 17 18 0 8 4 20 8 27 4
6 4 14 0 16 -5 3 -15 -11 -25 -30z"/>
<path d="M4181 3571 c-27 -7 -41 -31 -18 -31 26 0 77 22 71 31 -6 10 -18 10
-53 0z"/>
<path d="M1800 9210 c0 -5 9 -10 20 -10 11 0 20 5 20 10 0 6 -9 10 -20 10 -11
0 -20 -4 -20 -10z"/>
<path d="M1745 9131 c-3 -5 -1 -12 5 -16 5 -3 10 1 10 9 0 18 -6 21 -15 7z"/>
<path d="M615 8010 c-3 -5 1 -10 9 -10 9 0 16 5 16 10 0 6 -4 10 -9 10 -6 0
-13 -4 -16 -10z"/>
</g>
</svg>
